<svg aria-hidden="true" style="position: absolute; width: 0; height: 0; overflow: hidden;" version="1.1" xmlns="http://www.w3.org/2000/svg" xmlns:xlink="http://www.w3.org/1999/xlink">
<defs>
<symbol id="icon-ukraine" viewBox="0 0 32 32">
<path fill="#ffda44" style="fill: var(--color1, #ffda44)" d="M16 32c8.837 0 16-7.163 16-16s-7.163-16-16-16c-8.837 0-16 7.163-16 16s7.163 16 16 16z"></path>
<path fill="#338af3" style="fill: var(--color2, #338af3)" d="M0 16c0-8.836 7.163-16 16-16s16 7.163 16 16z"></path>
</symbol>
<symbol id="icon-login" viewBox="0 0 32 32">
<path fill="none" stroke="#f4c550" style="stroke: var(--color1, #f4c550)" stroke-linejoin="round" stroke-linecap="round" stroke-miterlimit="4" stroke-width="3.2" d="M20 4h1.6c2.24 0 3.36 0 4.216 0.436 0.753 0.383 1.364 0.995 1.748 1.748 0.436 0.856 0.436 1.976 0.436 4.216v11.2c0 2.24 0 3.36-0.436 4.216-0.384 0.753-0.995 1.364-1.748 1.748-0.856 0.436-1.976 0.436-4.216 0.436h-1.6"></path>
<path fill="none" stroke="#f4c550" style="stroke: var(--color1, #f4c550)" stroke-linejoin="round" stroke-linecap="round" stroke-miterlimit="4" stroke-width="3.2" d="M13.333 9.333l6.667 6.667M20 16l-6.667 6.667M20 16h-16"></path>
</symbol>
  <symbol id="icon-cross" viewBox="0 0 32 32">
            <path stroke-linejoin="round" stroke-linecap="round" stroke-width="2.667" d="M24 8 8 24M8 8l16 16" />
        </symbol>
 <symbol id="icon-burger" viewBox="0 0 32 32">
            <path stroke-linejoin="round" stroke-linecap="round" stroke-width="2"
                d="M28 13.333H4M28 8H4M28 18.667H4M28 24H4" />
        </symbol>
           <symbol id="icon-pancil" viewBox="0 0 32 32">
            <path stroke-linejoin="round" stroke-linecap="round" stroke-width="2.88"
                d="M22.667 4a3.76 3.76 0 0 1 2.667-1.104 3.779 3.779 0 0 1 3.485 2.327 3.76 3.76 0 0 1 0 2.886c-.19.458-.467.873-.818 1.223l-18 18-7.333 2 2-7.333 18-18z" />
        </symbol>
<symbol id="icon-time-progress"  viewBox="0 0 200 120">
  <path
    d="M 20 100 A 80 80 0 0 1 180 100"
    stroke="#f4c550"
    fill="none"
    stroke-width="12"
    stroke-linecap="round"
  />
        </symbol>
   
<symbol id="icon-user" viewBox="0 0 32 32">
<path fill="#f3f3f3" style="fill: var(--color1, #f3f3f3)" opacity="0.952941" d="M16 0c8.837 0 16 7.163 16 16s-7.163 16-16 16c-8.837 0-16-7.163-16-16s7.163-16 16-16z"></path>
<path fill="#939fc0" style="fill: var(--color2, #939fc0)" d="M21.278 15.314c0 2.802-2.272 5.074-5.074 5.074s-5.074-2.272-5.074-5.074c0-2.802 2.272-5.074 5.074-5.074s5.074 2.272 5.074 5.074z"></path>
<path fill="#939fc0" style="fill: var(--color2, #939fc0)" d="M28.48 32.54c0-1.639-0.323-3.262-0.95-4.776s-1.546-2.89-2.705-4.049c-1.159-1.159-2.535-2.078-4.049-2.705s-3.137-0.95-4.776-0.95-3.262 0.323-4.776 0.95c-1.514 0.627-2.89 1.546-4.049 2.705s-2.078 2.535-2.705 4.049c-0.627 1.514-0.95 3.137-0.95 4.776h24.96z"></path>
</symbol>
</defs>
</svg>

